<svg viewBox="0 0 245 240" xmlns="http://www.w3.org/2000/svg"><path fill="#FBECC1" d="M104.4 104.8c-5.7 0-10.2 5-10.2 11.1s4.6 11.1 10.2 11.1c5.7 0 10.3-5 10.2-11.1.1-6.1-4.5-11.1-10.2-11.1zm36.2 0c-5.7 0-10.2 5-10.2 11.1s4.6 11.1 10.2 11.1c5.7 0 10.3-5 10.2-11.1.1-6.1-4.5-11.1-10.2-11.1z"/><path fill="#FBECC1" d="M189.5 20h-134C42 20 34 28 34 37.5v165c0 9.5 8 17.5 17.5 17.5h113.5l-5.3-18.5 12.8 11.9 12.1 11.1 21.5 19V37.5c.1-9.5-7.9-17.5-17.6-17.5zm-30.8 135s-2.9-3.4-5.3-6.4c10.6-3 14.6-9.5 14.6-9.5-3.3 2.2-6.5 3.8-9.4 4.9-4.1 1.8-8 3-11.8 3.7-7.8 1.4-14.9 1-20.9-.1-4.6-.9-8.6-2.1-11.9-3.7-1.8-.9-3.8-1.9-5.7-3.2-.2-.1-.3-.2-.5-.3-.1-.1-.2-.1-.2-.2-1.1-.6-1.7-1-1.7-1s3.9 6.5 14.2 9.6c-2.4 3-5.4 6.5-5.4 6.5-17.8-.6-24.6-12.2-24.6-12.2 0-25.9 11.6-47 11.6-47 11.6-8.6 22.7-8.4 22.7-8.4l.8.9c-14.6 4.2-21.4 10.6-21.4 10.6s1.8-1 4.8-2.3c8.7-3.8 15.6-4.9 18.4-5.1.5-.1.9-.1 1.4-.1 5-.7 10.6-.9 16.4-.2 7.7.9 16 3.1 24.4 7.6 0 0-6.4-6.1-20.2-10.4l1.1-1.2s11.1-.2 22.7 8.4c0 0 11.6 21.1 11.6 47 0 0-6.8 11.6-24.6 12.2z"/></svg>